<?xml version="1.0" encoding="UTF-8" standalone="no" ?>
<!DOCTYPE svg PUBLIC "-//W3C//DTD SVG 1.1//EN" "http://www.w3.org/Graphics/SVG/1.1/DTD/svg11.dtd">
<svg xmlns="http://www.w3.org/2000/svg" xmlns:xlink="http://www.w3.org/1999/xlink" version="1.1" width="1080" height="250" viewBox="0 0 1080 250" xml:space="preserve">
<desc>Created with Fabric.js 5.2.4</desc>
<defs>
</defs>
<rect x="0" y="0" width="100%" height="100%" fill="transparent"></rect>
<g transform="matrix(0 0 0 0 0 0)" id="a616ba85-60af-4ffe-9067-d592db215751"  >
</g>
<g transform="matrix(1 0 0 1 540 125)" id="0fc2dbcc-4787-4763-9dac-0a6794241123"  >
<rect style="stroke: none; stroke-width: 1; stroke-dasharray: none; stroke-linecap: butt; stroke-dashoffset: 0; stroke-linejoin: miter; stroke-miterlimit: 4; fill: rgb(255,255,255); fill-rule: nonzero; opacity: 1; visibility: hidden;" vector-effect="non-scaling-stroke"  x="-540" y="-125" rx="0" ry="0" width="1080" height="250" />
</g>
<g transform="matrix(2.52 0 0 2.52 593.15 124.86)"  >
<g style="" vector-effect="non-scaling-stroke"   >
		<g transform="matrix(0.13 0 0 -0.13 43.51 -0.97)"  >
<path style="stroke: none; stroke-width: 1; stroke-dasharray: none; stroke-linecap: butt; stroke-dashoffset: 0; stroke-linejoin: miter; stroke-miterlimit: 4; fill: rgb(27,128,200); fill-rule: nonzero; opacity: 1;" vector-effect="non-scaling-stroke"  transform=" translate(-2847.16, -2500)" d="M 2451 2764 C 2388 2732 2375 2715 2250 2502 L 2156 2340 L 2118 2400 C 2097 2432 2080 2465 2080 2473 C 2080 2480 2098 2504 2120 2525 C 2142 2546 2160 2568 2160 2572 C 2160 2576 2142 2580 2121 2580 C 2087 2580 2075 2573 2036 2533 L 1990 2485 L 1990 2578 L 1990 2670 L 1945 2670 L 1900 2670 L 1900 2490 L 1900 2310 L 1945 2310 L 1990 2310 L 1990 2349 C 1990 2370 1996 2393 2003 2399 C 2014 2408 2023 2399 2044 2360 C 2069 2315 2075 2310 2106 2310 C 2137 2310 2140 2307 2140 2282 C 2140 2265 2150 2245 2163 2232 L 2186 2210 L 2803 2210 C 3473 2210 3452 2208 3527 2266 C 3547 2281 3598 2355 3659 2458 C 3802 2700 3802 2700 3789 2738 C 3783 2756 3770 2775 3760 2780 C 3748 2786 3507 2790 3123 2790 L 2504 2790 L 2451 2764 z M 2420 2600 C 2420 2561 2421 2560 2455 2560 C 2486 2560 2490 2557 2490 2535 C 2490 2513 2486 2510 2455 2510 L 2420 2510 L 2420 2445 C 2420 2379 2422 2376 2461 2379 C 2483 2381 2497 2330 2478 2319 C 2454 2303 2383 2309 2359 2329 C 2338 2346 2335 2359 2332 2429 C 2329 2490 2324 2510 2314 2510 C 2306 2510 2300 2520 2300 2535 C 2300 2551 2306 2560 2315 2560 C 2325 2560 2330 2570 2330 2593 C 2330 2636 2335 2640 2382 2640 C 2420 2640 2420 2640 2420 2600 z M 2590 2560 C 2590 2540 2590 2540 2623 2560 C 2670 2589 2680 2586 2680 2543 C 2680 2507 2681 2506 2695 2527 C 2718 2559 2787 2583 2837 2575 C 2917 2563 2972 2486 2951 2414 C 2935 2360 2928 2350 2893 2329 C 2865 2312 2848 2308 2798 2312 C 2743 2316 2734 2320 2703 2354 C 2671 2389 2669 2396 2672 2446 C 2675 2496 2673 2500 2653 2500 C 2608 2500 2590 2467 2590 2385 L 2590 2310 L 2550 2310 L 2510 2310 L 2510 2445 L 2510 2580 L 2550 2580 C 2583 2580 2590 2577 2590 2560 z M 3050 2493 C 3064 2448 3078 2409 3081 2406 C 3084 2403 3099 2441 3113 2490 L 3140 2580 L 3180 2580 C 3202 2580 3220 2577 3220 2573 C 3220 2568 3199 2507 3173 2437 L 3125 2309 L 3080 2312 L 3035 2315 L 2988 2440 C 2962 2509 2941 2569 2940 2573 C 2940 2578 2959 2580 2982 2578 L 3024 2575 L 3050 2493 z M 3406 2564 C 3444 2546 3465 2514 3475 2457 L 3482 2420 L 3386 2420 C 3293 2420 3290 2419 3300 2400 C 3315 2372 3358 2364 3391 2382 C 3417 2397 3419 2397 3440 2375 L 3462 2351 L 3429 2331 C 3407 2317 3378 2310 3347 2310 C 3257 2310 3208 2356 3208 2442 C 3208 2501 3229 2536 3281 2562 C 3324 2584 3362 2585 3406 2564 z M 3550 2375 C 3557 2366 3560 2350 3556 2335 C 3550 2313 3545 2309 3517 2312 C 3492 2314 3484 2320 3482 2338 C 3475 2382 3523 2408 3550 2375 z" stroke-linecap="round" />
</g>
		<g transform="matrix(0.13 0 0 -0.13 41.68 7.72)"  >
<path style="stroke: none; stroke-width: 1; stroke-dasharray: none; stroke-linecap: butt; stroke-dashoffset: 0; stroke-linejoin: miter; stroke-miterlimit: 4; fill: rgb(27,128,200); fill-rule: nonzero; opacity: 1;" vector-effect="non-scaling-stroke"  transform=" translate(-2811.3, -2440.32)" d="M 2777 2498 C 2768 2491 2757 2471 2754 2453 C 2749 2427 2753 2416 2773 2396 C 2804 2365 2823 2363 2850 2390 C 2905 2445 2839 2543 2777 2498 z" stroke-linecap="round" />
</g>
		<g transform="matrix(0.13 0 0 -0.13 112.47 0.62)"  >
<path style="stroke: none; stroke-width: 1; stroke-dasharray: none; stroke-linecap: butt; stroke-dashoffset: 0; stroke-linejoin: miter; stroke-miterlimit: 4; fill: rgb(27,128,200); fill-rule: nonzero; opacity: 1;" vector-effect="non-scaling-stroke"  transform=" translate(-3341.95, -2494.72)" d="M 3307 2502 C 3281 2474 3286 2470 3340 2470 C 3394 2470 3409 2489 3371 2510 C 3343 2525 3325 2522 3307 2502 z" stroke-linecap="round" />
</g>
		<g transform="matrix(0.13 0 0 -0.13 -160.61 2.78)"  >
<path style="stroke: none; stroke-width: 1; stroke-dasharray: none; stroke-linecap: butt; stroke-dashoffset: 0; stroke-linejoin: miter; stroke-miterlimit: 4; fill: rgb(27,128,200); fill-rule: nonzero; opacity: 1;" vector-effect="non-scaling-stroke"  transform=" translate(-1295, -2475)" d="M 1240 2604 C 1240 2577 1235 2567 1220 2563 C 1207 2560 1200 2549 1200 2535 C 1200 2521 1207 2510 1220 2507 C 1238 2502 1240 2493 1240 2426 C 1240 2330 1255 2310 1329 2310 C 1357 2310 1382 2315 1385 2321 C 1397 2339 1381 2381 1362 2379 C 1322 2375 1320 2379 1320 2445 L 1320 2510 L 1355 2510 C 1386 2510 1390 2513 1390 2535 C 1390 2557 1386 2560 1355 2560 C 1321 2560 1320 2561 1320 2600 L 1320 2640 L 1280 2640 C 1241 2640 1240 2639 1240 2604 z" stroke-linecap="round" />
</g>
		<g transform="matrix(0.13 0 0 -0.13 -131.46 6.95)"  >
<path style="stroke: none; stroke-width: 1; stroke-dasharray: none; stroke-linecap: butt; stroke-dashoffset: 0; stroke-linejoin: miter; stroke-miterlimit: 4; fill: rgb(27,128,200); fill-rule: nonzero; opacity: 1;" vector-effect="non-scaling-stroke"  transform=" translate(-1514.32, -2444.52)" d="M 1455 2566 C 1433 2560 1415 2549 1416 2542 C 1420 2499 1418 2500 1475 2506 C 1513 2511 1534 2509 1545 2500 C 1571 2478 1562 2470 1510 2470 C 1405 2470 1357 2405 1411 2336 C 1428 2315 1440 2310 1477 2310 C 1506 2310 1530 2316 1542 2327 C 1559 2342 1560 2342 1560 2327 C 1560 2314 1569 2310 1600 2310 L 1640 2310 L 1640 2411 C 1640 2466 1635 2520 1629 2532 C 1616 2556 1561 2580 1523 2579 C 1508 2579 1477 2573 1455 2566 z M 1558 2403 C 1556 2393 1543 2379 1528 2370 C 1503 2357 1499 2357 1484 2372 C 1457 2399 1473 2420 1520 2420 C 1554 2420 1561 2417 1558 2403 z" stroke-linecap="round" />
</g>
		<g transform="matrix(0.13 0 0 -0.13 -97.62 7.15)"  >
<path style="stroke: none; stroke-width: 1; stroke-dasharray: none; stroke-linecap: butt; stroke-dashoffset: 0; stroke-linejoin: miter; stroke-miterlimit: 4; fill: rgb(27,128,200); fill-rule: nonzero; opacity: 1;" vector-effect="non-scaling-stroke"  transform=" translate(-1767.77, -2443.05)" d="M 1712 2566 C 1643 2534 1649 2456 1723 2425 C 1785 2400 1793 2395 1798 2381 C 1801 2371 1791 2369 1759 2373 C 1735 2375 1706 2381 1694 2384 C 1678 2390 1671 2386 1662 2365 C 1651 2341 1652 2338 1685 2324 C 1761 2293 1863 2315 1876 2367 C 1889 2417 1870 2443 1802 2469 C 1768 2483 1741 2498 1743 2504 C 1747 2516 1792 2517 1831 2506 C 1852 2500 1858 2503 1868 2524 C 1878 2546 1877 2551 1859 2560 C 1825 2579 1748 2582 1712 2566 z" stroke-linecap="round" />
</g>
</g>
</g>
</svg>